# xmcd
#
# Track frame offsets:
#	150
#	18711
#	32818
#	51632
#	68404
#	82737
#	97407
#	121961
#
# Disc length: 1829 seconds
#
# Revision: 0
# Processed by: cddbd v1.5.2PL0 Copyright (c) Steve Scherf et al.
# Submitted via: EasyCDDAExtractor 16.0.9.1
#
DISCID=69072308
DTITLE=Los Terricolas - La Mejor... Coleccion CD3
DYEAR=1900
DGENRE=
TTITLE0=Ya Para Que
TTITLE1=El Plebeyo
TTITLE2=Deja De Llorar Chiquilla
TTITLE3=Tu Boda
TTITLE4=No Me Hables Mas
TTITLE5=Llego Navidad
TTITLE6=Cuesta Abajo
TTITLE7=Dos Lagrimas
EXTD=
EXTT0=
EXTT1=
EXTT2=
EXTT3=
EXTT4=
EXTT5=
EXTT6=
EXTT7=
PLAYORDER=
